<svg xmlns="http://www.w3.org/2000/svg" xmlns:xlink="http://www.w3.org/1999/xlink" width="80" zoomAndPan="magnify" viewBox="0 0 60 74.999997" height="100" preserveAspectRatio="xMidYMid meet" version="1.0"><defs><clipPath id="6230d93557"><path d="M 0.339844 26.40625 L 36 26.40625 L 36 57 L 0.339844 57 Z M 0.339844 26.40625 " clip-rule="nonzero"/></clipPath><clipPath id="9a98d8f191"><path d="M 39 19 L 59 19 L 59 40 L 39 40 Z M 39 19 " clip-rule="nonzero"/></clipPath><clipPath id="5d2a8c736e"><path d="M 35.972656 24.21875 L 52.761719 17.738281 L 59.246094 34.527344 L 42.453125 41.011719 Z M 35.972656 24.21875 " clip-rule="nonzero"/></clipPath><clipPath id="956644b901"><path d="M 35.972656 24.21875 L 52.761719 17.738281 L 59.246094 34.527344 L 42.453125 41.011719 Z M 35.972656 24.21875 " clip-rule="nonzero"/></clipPath></defs><g clip-path="url(#6230d93557)"><path fill="#ffffff" d="M 28.453125 40.332031 C 28.453125 40.332031 27.929688 45.257812 27.402344 45.851562 C 26.878906 46.441406 26.351562 54.0625 27.074219 54.71875 C 27.796875 55.375 28.652344 55.640625 28.71875 56.296875 C 28.78125 56.953125 26.417969 56.820312 26.21875 56.757812 C 26.023438 56.691406 23.988281 49.265625 23.527344 48.871094 C 23.066406 48.476562 23.660156 51.566406 23.132812 52.421875 C 22.605469 53.273438 21.03125 54.195312 21.03125 54.195312 L 21.03125 54.71875 C 21.03125 54.71875 22.871094 54.390625 23.066406 54.851562 C 23.265625 55.3125 23.527344 56.164062 22.933594 56.230469 C 22.34375 56.296875 20.636719 56.296875 20.636719 56.296875 C 20.636719 56.296875 20.703125 56.804688 17.546875 56.8125 C 14.394531 56.820312 11.304688 56.363281 11.304688 56.363281 L 5.328125 56.097656 C 5.328125 56.097656 5.789062 56.476562 5.328125 56.8125 C 4.867188 57.152344 0.53125 56.953125 0.269531 56.164062 C 0.00390625 55.375 0.925781 53.867188 3.882812 53.929688 C 6.839844 53.996094 10.714844 55.179688 11.042969 53.339844 C 11.371094 51.5 10.1875 47.691406 13.210938 43.089844 C 16.234375 38.492188 18.730469 40.265625 19.980469 38.558594 C 21.226562 36.847656 21.949219 34.8125 21.554688 32.972656 C 21.160156 31.132812 20.570312 28.242188 21.425781 27.714844 C 22.277344 27.191406 23.59375 29.359375 23.59375 29.359375 C 23.59375 29.359375 26.285156 28.964844 26.417969 29.160156 C 26.550781 29.359375 27.402344 27.632812 27.402344 27.632812 C 27.402344 27.632812 27.664062 29.292969 27.535156 29.554688 C 27.402344 29.820312 28.390625 30.277344 28.453125 30.542969 C 28.519531 30.804688 29.246094 31.660156 28.71875 32.445312 C 28.191406 33.234375 27.863281 33.890625 27.996094 34.417969 C 28.125 34.945312 28.125 34.945312 28.125 34.945312 C 28.125 34.945312 31.671875 31.988281 32.921875 30.804688 C 34.171875 29.621094 33.777344 29.425781 34.234375 28.242188 C 34.695312 27.058594 35.417969 26.402344 35.878906 26.796875 C 36.339844 27.191406 36.011719 27.980469 35.878906 28.109375 C 35.746094 28.242188 35.746094 28.503906 35.8125 28.832031 C 35.878906 29.160156 35.878906 29.6875 35.351562 29.820312 C 34.828125 29.949219 34.894531 31.722656 34.433594 32.25 C 33.972656 32.777344 30.753906 39.28125 28.453125 40.332031 " fill-opacity="1" fill-rule="nonzero"/></g><g clip-path="url(#9a98d8f191)"><g clip-path="url(#5d2a8c736e)"><g clip-path="url(#956644b901)"><path fill="#ffffff" d="M 55.457031 31.238281 C 55.070312 31.386719 54.738281 31.648438 54.523438 31.96875 L 50.453125 30.15625 C 50.417969 30.140625 50.386719 30.140625 50.351562 30.121094 C 50.535156 29.519531 50.523438 28.839844 50.273438 28.195312 C 49.921875 27.277344 49.167969 26.632812 48.296875 26.375 L 48.679688 23.792969 C 48.898438 23.785156 49.132812 23.738281 49.351562 23.652344 C 50.449219 23.230469 51.003906 21.976562 50.582031 20.878906 C 50.15625 19.78125 48.90625 19.226562 47.792969 19.65625 C 46.683594 20.082031 46.140625 21.332031 46.566406 22.429688 C 46.800781 23.035156 47.28125 23.472656 47.851562 23.683594 L 47.460938 26.253906 C 47.089844 26.25 46.699219 26.308594 46.324219 26.453125 C 45.679688 26.703125 45.183594 27.148438 44.839844 27.679688 C 44.832031 27.667969 44.820312 27.671875 44.816406 27.660156 L 42.542969 26.652344 C 42.5625 26.4375 42.539062 26.222656 42.460938 26.015625 C 42.1875 25.308594 41.378906 24.949219 40.671875 25.226562 C 39.960938 25.5 39.601562 26.304688 39.878906 27.015625 C 40.152344 27.726562 40.957031 28.082031 41.667969 27.808594 C 41.886719 27.722656 42.074219 27.589844 42.214844 27.417969 L 44.488281 28.425781 C 44.488281 28.425781 44.503906 28.433594 44.519531 28.429688 C 44.332031 29.0625 44.34375 29.742188 44.59375 30.386719 C 44.8125 30.957031 45.183594 31.421875 45.636719 31.75 L 43.847656 35.140625 C 43.414062 35.027344 42.960938 35.039062 42.507812 35.214844 C 41.425781 35.632812 40.863281 36.871094 41.289062 37.96875 C 41.710938 39.066406 42.964844 39.621094 44.0625 39.199219 C 45.160156 38.773438 45.71875 37.535156 45.289062 36.425781 C 45.144531 36.050781 44.902344 35.726562 44.59375 35.507812 L 46.382812 32.144531 C 47.058594 32.390625 47.808594 32.410156 48.53125 32.132812 C 49.1875 31.878906 49.699219 31.429688 50.03125 30.871094 C 50.054688 30.890625 50.089844 30.90625 50.113281 30.925781 L 54.164062 32.730469 C 54.078125 33.121094 54.101562 33.527344 54.253906 33.929688 C 54.667969 35 55.867188 35.53125 56.9375 35.117188 C 58.011719 34.703125 58.542969 33.503906 58.128906 32.433594 C 57.714844 31.359375 56.527344 30.824219 55.457031 31.238281 Z M 55.457031 31.238281 " fill-opacity="1" fill-rule="nonzero"/></g></g></g></svg>