<svg xmlns="http://www.w3.org/2000/svg" xmlns:xlink="http://www.w3.org/1999/xlink" width="80" zoomAndPan="magnify" viewBox="0 0 60 37.5" height="50" preserveAspectRatio="xMidYMid meet" version="1.0"><defs><clipPath id="33d2e9706a"><path d="M 1.738281 7 L 36.445312 7 L 36.445312 37 L 1.738281 37 Z M 1.738281 7 " clip-rule="nonzero"/></clipPath><clipPath id="078dcb8ce7"><path d="M 39 1 L 59 1 L 59 22 L 39 22 Z M 39 1 " clip-rule="nonzero"/></clipPath><clipPath id="a603e85dcc"><path d="M 36.269531 6.238281 L 52.648438 -0.0859375 L 58.96875 16.292969 L 42.589844 22.617188 Z M 36.269531 6.238281 " clip-rule="nonzero"/></clipPath><clipPath id="12895bdaee"><path d="M 36.269531 6.238281 L 52.648438 -0.0859375 L 58.96875 16.292969 L 42.589844 22.617188 Z M 36.269531 6.238281 " clip-rule="nonzero"/></clipPath></defs><g clip-path="url(#33d2e9706a)"><path fill="#ffffff" d="M 29.144531 20.558594 C 29.144531 20.558594 28.632812 25.375 28.117188 25.953125 C 27.605469 26.53125 27.089844 33.980469 27.796875 34.621094 C 28.503906 35.261719 29.339844 35.519531 29.402344 36.164062 C 29.464844 36.804688 27.15625 36.675781 26.960938 36.613281 C 26.769531 36.546875 24.777344 29.289062 24.328125 28.90625 C 23.878906 28.519531 24.457031 31.539062 23.945312 32.375 C 23.429688 33.207031 21.886719 34.109375 21.886719 34.109375 L 21.886719 34.621094 C 21.886719 34.621094 23.6875 34.300781 23.878906 34.75 C 24.070312 35.199219 24.328125 36.035156 23.75 36.097656 C 23.171875 36.164062 21.503906 36.164062 21.503906 36.164062 C 21.503906 36.164062 21.566406 36.660156 18.484375 36.667969 C 15.402344 36.675781 12.382812 36.226562 12.382812 36.226562 L 6.539062 35.96875 C 6.539062 35.96875 6.988281 36.339844 6.539062 36.667969 C 6.089844 36.996094 1.851562 36.804688 1.59375 36.035156 C 1.335938 35.261719 2.238281 33.785156 5.125 33.851562 C 8.015625 33.914062 11.804688 35.070312 12.125 33.273438 C 12.449219 31.472656 11.292969 27.75 14.246094 23.253906 C 17.199219 18.757812 19.640625 20.492188 20.859375 18.824219 C 22.082031 17.152344 22.789062 15.160156 22.402344 13.363281 C 22.015625 11.566406 21.4375 8.738281 22.273438 8.226562 C 23.109375 7.710938 24.394531 9.832031 24.394531 9.832031 C 24.394531 9.832031 27.027344 9.445312 27.15625 9.640625 C 27.28125 9.832031 28.117188 8.144531 28.117188 8.144531 C 28.117188 8.144531 28.375 9.765625 28.246094 10.023438 C 28.117188 10.28125 29.082031 10.730469 29.144531 10.988281 C 29.210938 11.246094 29.917969 12.078125 29.402344 12.851562 C 28.886719 13.621094 28.566406 14.261719 28.695312 14.777344 C 28.824219 15.289062 28.824219 15.289062 28.824219 15.289062 C 28.824219 15.289062 32.292969 12.402344 33.511719 11.246094 C 34.734375 10.089844 34.347656 9.894531 34.796875 8.738281 C 35.246094 7.582031 35.953125 6.941406 36.402344 7.328125 C 36.851562 7.710938 36.53125 8.484375 36.402344 8.613281 C 36.273438 8.738281 36.273438 8.996094 36.339844 9.316406 C 36.402344 9.640625 36.402344 10.152344 35.890625 10.28125 C 35.375 10.410156 35.4375 12.144531 34.988281 12.65625 C 34.539062 13.171875 31.394531 19.527344 29.144531 20.558594 " fill-opacity="1" fill-rule="nonzero"/></g><g clip-path="url(#078dcb8ce7)"><g clip-path="url(#a603e85dcc)"><g clip-path="url(#12895bdaee)"><path fill="#ffffff" d="M 55.316406 13.101562 C 54.9375 13.246094 54.617188 13.5 54.402344 13.816406 L 50.425781 12.042969 C 50.390625 12.027344 50.359375 12.023438 50.324219 12.011719 C 50.503906 11.417969 50.496094 10.753906 50.25 10.125 C 49.90625 9.226562 49.167969 8.597656 48.316406 8.347656 L 48.691406 5.824219 C 48.90625 5.8125 49.132812 5.769531 49.347656 5.683594 C 50.421875 5.269531 50.964844 4.046875 50.550781 2.972656 C 50.136719 1.898438 48.910156 1.359375 47.824219 1.777344 C 46.738281 2.195312 46.210938 3.414062 46.625 4.488281 C 46.855469 5.082031 47.324219 5.511719 47.882812 5.714844 L 47.5 8.226562 C 47.136719 8.222656 46.753906 8.28125 46.386719 8.425781 C 45.757812 8.667969 45.273438 9.101562 44.9375 9.621094 C 44.933594 9.609375 44.917969 9.613281 44.914062 9.601562 L 42.691406 8.617188 C 42.710938 8.40625 42.691406 8.199219 42.613281 7.996094 C 42.34375 7.300781 41.554688 6.953125 40.863281 7.222656 C 40.167969 7.488281 39.820312 8.277344 40.085938 8.972656 C 40.355469 9.664062 41.140625 10.015625 41.835938 9.746094 C 42.050781 9.664062 42.234375 9.535156 42.371094 9.367188 L 44.59375 10.351562 C 44.59375 10.351562 44.609375 10.359375 44.625 10.351562 C 44.441406 10.972656 44.453125 11.636719 44.695312 12.269531 C 44.910156 12.824219 45.273438 13.277344 45.71875 13.601562 L 43.964844 16.917969 C 43.546875 16.804688 43.101562 16.816406 42.660156 16.984375 C 41.597656 17.394531 41.050781 18.609375 41.464844 19.679688 C 41.878906 20.753906 43.105469 21.296875 44.175781 20.882812 C 45.25 20.46875 45.796875 19.253906 45.378906 18.171875 C 45.238281 17.804688 45 17.488281 44.699219 17.273438 L 46.445312 13.984375 C 47.105469 14.226562 47.839844 14.246094 48.546875 13.972656 C 49.191406 13.726562 49.6875 13.285156 50.011719 12.738281 C 50.035156 12.761719 50.070312 12.777344 50.09375 12.796875 L 54.050781 14.558594 C 53.96875 14.941406 53.988281 15.339844 54.140625 15.730469 C 54.546875 16.777344 55.71875 17.296875 56.765625 16.890625 C 57.8125 16.488281 58.332031 15.316406 57.929688 14.269531 C 57.523438 13.21875 56.363281 12.695312 55.316406 13.101562 Z M 55.316406 13.101562 " fill-opacity="1" fill-rule="nonzero"/></g></g></g></svg>