<svg xmlns="http://www.w3.org/2000/svg" xmlns:xlink="http://www.w3.org/1999/xlink" width="80" zoomAndPan="magnify" viewBox="0 0 60 37.5" height="50" preserveAspectRatio="xMidYMid meet" version="1.0"><defs><clipPath id="2dce98a2f8"><path d="M 4.980469 8.269531 L 35.707031 8.269531 L 35.707031 34.914062 L 4.980469 34.914062 Z M 4.980469 8.269531 " clip-rule="nonzero"/></clipPath><clipPath id="3874c9b3ec"><path d="M 38 3 L 55 3 L 55 21 L 38 21 Z M 38 3 " clip-rule="nonzero"/></clipPath><clipPath id="01539c5314"><path d="M 35.550781 7.644531 L 50.050781 2.046875 L 55.648438 16.546875 L 41.148438 22.144531 Z M 35.550781 7.644531 " clip-rule="nonzero"/></clipPath><clipPath id="763302703f"><path d="M 35.550781 7.644531 L 50.050781 2.046875 L 55.648438 16.546875 L 41.148438 22.144531 Z M 35.550781 7.644531 " clip-rule="nonzero"/></clipPath></defs><g clip-path="url(#2dce98a2f8)"><path fill="#ffffff" d="M 29.242188 20.320312 C 29.242188 20.320312 28.789062 24.585938 28.335938 25.097656 C 27.878906 25.609375 27.425781 32.203125 28.050781 32.773438 C 28.675781 33.339844 29.414062 33.570312 29.472656 34.136719 C 29.527344 34.707031 27.480469 34.59375 27.308594 34.535156 C 27.140625 34.476562 25.378906 28.054688 24.980469 27.710938 C 24.582031 27.371094 25.09375 30.042969 24.636719 30.78125 C 24.183594 31.523438 22.820312 32.316406 22.820312 32.316406 L 22.820312 32.773438 C 22.820312 32.773438 24.410156 32.488281 24.582031 32.886719 C 24.753906 33.285156 24.980469 34.023438 24.46875 34.082031 C 23.957031 34.136719 22.476562 34.136719 22.476562 34.136719 C 22.476562 34.136719 22.535156 34.578125 19.804688 34.585938 C 17.078125 34.59375 14.40625 34.195312 14.40625 34.195312 L 9.230469 33.964844 C 9.230469 33.964844 9.628906 34.292969 9.230469 34.585938 C 8.832031 34.875 5.082031 34.707031 4.851562 34.023438 C 4.625 33.339844 5.421875 32.035156 7.980469 32.089844 C 10.539062 32.148438 13.894531 33.171875 14.175781 31.578125 C 14.460938 29.988281 13.4375 26.6875 16.054688 22.710938 C 18.667969 18.730469 20.828125 20.265625 21.910156 18.785156 C 22.988281 17.308594 23.613281 15.546875 23.273438 13.953125 C 22.933594 12.363281 22.421875 9.859375 23.160156 9.40625 C 23.898438 8.949219 25.035156 10.824219 25.035156 10.824219 C 25.035156 10.824219 27.367188 10.484375 27.480469 10.65625 C 27.59375 10.824219 28.335938 9.332031 28.335938 9.332031 C 28.335938 9.332031 28.5625 10.769531 28.449219 10.996094 C 28.335938 11.222656 29.1875 11.621094 29.242188 11.851562 C 29.300781 12.078125 29.929688 12.816406 29.472656 13.5 C 29.015625 14.179688 28.730469 14.75 28.84375 15.203125 C 28.960938 15.660156 28.960938 15.660156 28.960938 15.660156 C 28.960938 15.660156 32.03125 13.101562 33.109375 12.078125 C 34.191406 11.054688 33.847656 10.882812 34.246094 9.859375 C 34.644531 8.835938 35.269531 8.269531 35.667969 8.609375 C 36.066406 8.949219 35.78125 9.632812 35.667969 9.746094 C 35.554688 9.859375 35.554688 10.085938 35.613281 10.371094 C 35.667969 10.65625 35.667969 11.109375 35.214844 11.222656 C 34.757812 11.339844 34.816406 12.875 34.417969 13.328125 C 34.019531 13.78125 31.234375 19.410156 29.242188 20.320312 " fill-opacity="1" fill-rule="nonzero"/></g><g clip-path="url(#3874c9b3ec)"><g clip-path="url(#01539c5314)"><g clip-path="url(#763302703f)"><path fill="#ffffff" d="M 52.414062 13.71875 C 52.078125 13.847656 51.792969 14.074219 51.605469 14.351562 L 48.082031 12.785156 C 48.050781 12.769531 48.027344 12.769531 47.996094 12.753906 C 48.152344 12.230469 48.144531 11.644531 47.929688 11.085938 C 47.621094 10.292969 46.96875 9.734375 46.214844 9.511719 L 46.546875 7.277344 C 46.738281 7.269531 46.941406 7.230469 47.128906 7.15625 C 48.078125 6.789062 48.558594 5.703125 48.195312 4.753906 C 47.828125 3.804688 46.742188 3.324219 45.78125 3.695312 C 44.820312 4.066406 44.351562 5.144531 44.71875 6.097656 C 44.921875 6.621094 45.335938 7 45.832031 7.183594 L 45.496094 9.40625 C 45.171875 9.402344 44.832031 9.453125 44.507812 9.578125 C 43.949219 9.796875 43.519531 10.179688 43.222656 10.640625 C 43.21875 10.628906 43.207031 10.632812 43.203125 10.625 L 41.234375 9.753906 C 41.253906 9.566406 41.234375 9.378906 41.164062 9.203125 C 40.925781 8.585938 40.230469 8.277344 39.617188 8.515625 C 39 8.753906 38.691406 9.449219 38.929688 10.066406 C 39.167969 10.679688 39.863281 10.988281 40.480469 10.75 C 40.667969 10.675781 40.832031 10.5625 40.953125 10.414062 L 42.917969 11.285156 C 42.917969 11.285156 42.933594 11.292969 42.945312 11.289062 C 42.785156 11.835938 42.792969 12.425781 43.011719 12.984375 C 43.199219 13.476562 43.523438 13.878906 43.914062 14.164062 L 42.363281 17.097656 C 41.992188 17 41.597656 17.007812 41.207031 17.160156 C 40.269531 17.523438 39.785156 18.597656 40.152344 19.546875 C 40.515625 20.496094 41.601562 20.976562 42.550781 20.609375 C 43.5 20.242188 43.984375 19.167969 43.613281 18.207031 C 43.488281 17.882812 43.28125 17.605469 43.011719 17.414062 L 44.5625 14.503906 C 45.144531 14.714844 45.792969 14.734375 46.417969 14.492188 C 46.988281 14.273438 47.429688 13.882812 47.71875 13.402344 C 47.738281 13.417969 47.769531 13.433594 47.789062 13.449219 L 51.292969 15.011719 C 51.21875 15.351562 51.238281 15.703125 51.371094 16.046875 C 51.730469 16.976562 52.769531 17.433594 53.695312 17.078125 C 54.625 16.71875 55.082031 15.679688 54.726562 14.753906 C 54.367188 13.824219 53.339844 13.363281 52.414062 13.71875 Z M 52.414062 13.71875 " fill-opacity="1" fill-rule="nonzero"/></g></g></g></svg>